<?xml version="1.0" standalone="no"?><!DOCTYPE svg PUBLIC "-//W3C//DTD SVG 1.1//EN" "http://www.w3.org/Graphics/SVG/1.1/DTD/svg11.dtd"><svg t="1534390447083" class="icon" style="" viewBox="0 0 1024 1024" version="1.1" xmlns="http://www.w3.org/2000/svg" p-id="7622" xmlns:xlink="http://www.w3.org/1999/xlink" width="200" height="200"><defs><style type="text/css"></style></defs><path d="M199.7824 560.128c-34.5088 0-62.464 28.4672-62.464 63.5904s27.9552 63.5904 62.464 63.5904 62.3616-28.4672 62.3616-63.5904-27.8528-63.5904-62.3616-63.5904z m811.008-268.1856c0.512-23.4496-5.7344-78.336-75.8784-97.3824L230.5024 50.9952c-51.6096 0-93.5936 42.8032-93.5936 95.3344v127.7952h-31.232c-51.4048 0.2048-93.2864 42.8032-93.2864 95.232v508.3136c0 52.6336 41.984 95.3344 93.5936 95.3344h811.7248c51.6096 0 93.5936-42.8032 93.5936-95.3344l-0.512-585.728zM199.3728 146.3296c0-16.5888 12.5952-30.208 28.4672-31.6416l688.3328 141.9264c0.3072 0.1024-5.12 17.8176-30.1056 17.5104H199.3728V146.3296z m749.6704 731.3408c0 17.5104-14.0288 31.744-31.232 31.744H106.1888c-17.2032 0-31.232-14.2336-31.232-31.744V369.3568c0-17.5104 14.0288-31.744 31.232-31.744h780.0832c30.6176 0 62.7712-10.6496 62.7712-31.6416v571.6992z m0 0" p-id="7623"></path></svg>